<svg height="512" viewBox="0 0 512 512" width="512" xmlns="http://www.w3.org/2000/svg" xmlns:xlink="http://www.w3.org/1999/xlink"><linearGradient id="a" gradientUnits="userSpaceOnUse" x1="16.212" x2="527.114" y1="495.788" y2="-15.114" data-name="New Gradient Swatch 1"><stop offset="0" stop-color="#003f8a"/><stop offset=".518" stop-color="#00d7df"/><stop offset="1" stop-color="#006df0"/></linearGradient><linearGradient id="b" x1="56.212" x2="567.114" xlink:href="#a" y1="535.788" y2="24.886"/><linearGradient id="c" x1="32.212" x2="543.114" xlink:href="#a" y1="511.788" y2=".886"/><linearGradient id="d" x1="104.212" x2="615.114" xlink:href="#a" y1="583.788" y2="72.886"/><linearGradient id="e" x1="80.212" x2="591.114" xlink:href="#a" y1="559.788" y2="48.886"/><linearGradient id="f" x1="8.212" x2="519.114" xlink:href="#a" y1="487.788" y2="-23.114"/><linearGradient id="g" x1="72.212" x2="583.114" xlink:href="#a" y1="551.788" y2="40.886"/><linearGradient id="i" x1="88.212" x2="599.114" xlink:href="#a" y1="567.788" y2="56.886"/><linearGradient id="k" x1="112.212" x2="623.114" xlink:href="#a" y1="591.788" y2="80.886"/><linearGradient id="l" x1="128.212" x2="639.114" xlink:href="#a" y1="607.788" y2="96.886"/><linearGradient id="m" x1="132.212" x2="643.114" xlink:href="#a" y1="611.788" y2="100.886"/><linearGradient id="n" x1="158.212" x2="669.114" xlink:href="#a" y1="637.788" y2="126.886"/><linearGradient id="o" x1="-28.788" x2="482.114" xlink:href="#a" y1="450.788" y2="-60.114"/><g><path d="m496 120h-480a8 8 0 0 0 -8 8v256a8 8 0 0 0 8 8h480a8 8 0 0 0 8-8v-256a8 8 0 0 0 -8-8zm-8 256h-464v-240h464z" fill="url(#a)"/><path d="m336 272a8 8 0 0 0 8-8v-16a8 8 0 0 0 -16 0v16a8 8 0 0 0 8 8z" fill="url(#b)"/><path d="m336 224a8 8 0 0 0 8-8v-16a8 8 0 0 0 -16 0v16a8 8 0 0 0 8 8z" fill="url(#c)"/><path d="m336 368a8 8 0 0 0 8-8v-16a8 8 0 0 0 -16 0v16a8 8 0 0 0 8 8z" fill="url(#d)"/><path d="m336 320a8 8 0 0 0 8-8v-16a8 8 0 0 0 -16 0v16a8 8 0 0 0 8 8z" fill="url(#e)"/><path d="m336 176a8 8 0 0 0 8-8v-16a8 8 0 0 0 -16 0v16a8 8 0 0 0 8 8z" fill="url(#f)"/><path d="m400 232a7.974 7.974 0 0 0 5.657-2.343l32-32a8 8 0 0 0 -11.314-11.314l-32 32a8 8 0 0 0 5.657 13.657z" fill="url(#g)"/><circle cx="400" cy="192" fill="url(#b)" r="8"/><circle cx="432" cy="224" fill="url(#i)" r="8"/><path d="m416 264a56 56 0 1 0 -56-56 56.063 56.063 0 0 0 56 56zm0-96a40 40 0 1 1 -40 40 40.045 40.045 0 0 1 40-40z" fill="url(#g)"/><path d="m368 296h96a8 8 0 0 0 0-16h-96a8 8 0 0 0 0 16z" fill="url(#k)"/><path d="m368 328h96a8 8 0 0 0 0-16h-96a8 8 0 0 0 0 16z" fill="url(#l)"/><path d="m368 360h48a8 8 0 0 0 0-16h-48a8 8 0 0 0 0 16z" fill="url(#m)"/><path d="m448 344h-8a8 8 0 0 0 0 16h8a8 8 0 0 0 0-16z" fill="url(#n)"/><path d="m248.97 216.02 5.66-39.6a7.994 7.994 0 0 0 -9.05-9.05l-39.6 5.66a7.937 7.937 0 0 0 -4.8 2.55l-22.45 24.82-58.82-26.74a8.006 8.006 0 0 0 -8.96 1.63l-11.32 11.31a7.989 7.989 0 0 0 .75 11.97l46.95 36.52-29.15 32.23-27.33-9.11a8.007 8.007 0 0 0 -8.19 1.93l-11.31 11.32a7.985 7.985 0 0 0 0 11.31l21.29 21.29 5.06 15.18a8.013 8.013 0 0 0 5.06 5.06l15.18 5.06 21.29 21.29a7.979 7.979 0 0 0 11.31 0l11.32-11.31a8 8 0 0 0 1.93-8.19l-9.11-27.33 32.23-29.15 36.52 46.95a8.006 8.006 0 0 0 5.81 3.08c.17.01.34.01.5.01a8.025 8.025 0 0 0 5.66-2.34l11.31-11.32a7.986 7.986 0 0 0 1.63-8.96l-26.74-58.82 24.82-22.45a7.937 7.937 0 0 0 2.55-4.8zm-131.62-24.51.99-.99 46.67 21.22-9.47 9.47zm-18.01 96.63-11.02-11.03 2.16-2.16 15.97 5.33zm45.55 45.54-11.03-11.02 7.86-7.11 5.33 15.97zm86.59-30.02-.99.99-29.7-38.19 9.47-9.47zm2.06-92.77-93.35 84.46a.943.943 0 0 1 -.1.1l-19.73 17.85-8.75-2.91-2.91-8.75 17.85-19.72a1.059 1.059 0 0 1 .1-.12l84.46-93.34 26.17-3.74z" fill="url(#o)"/></g></svg>